<mxfile host="app.diagrams.net" modified="2022-03-18T07:28:25.627Z" agent="5.0 (Windows NT 10.0; Win64; x64) AppleWebKit/537.36 (KHTML, like Gecko) Chrome/99.0.4844.51 Safari/537.36" etag="yfs-SZ6QrzjQTE4EGaX8" version="17.1.3" type="github">
  <diagram id="zysH_MN9FjRer_7VrNoe" name="Page-1">
    <mxGraphModel dx="1422" dy="730" grid="1" gridSize="10" guides="1" tooltips="1" connect="1" arrows="1" fold="1" page="1" pageScale="1" pageWidth="827" pageHeight="1169" math="0" shadow="0">
      <root>
        <mxCell id="0" />
        <mxCell id="1" parent="0" />
        <mxCell id="rYequQ2dtKzdK-yXNaAb-169" style="edgeStyle=orthogonalEdgeStyle;rounded=0;orthogonalLoop=1;jettySize=auto;html=1;fontColor=#E6E6E6;" parent="1" edge="1">
          <mxGeometry relative="1" as="geometry">
            <mxPoint x="430" y="785" as="targetPoint" />
            <mxPoint x="430" y="830" as="sourcePoint" />
          </mxGeometry>
        </mxCell>
        <mxCell id="rYequQ2dtKzdK-yXNaAb-166" value="" style="rounded=0;whiteSpace=wrap;html=1;fillColor=#f5f5f5;fontColor=#333333;strokeColor=#666666;" parent="1" vertex="1">
          <mxGeometry x="260" y="831" width="340" height="70" as="geometry" />
        </mxCell>
        <mxCell id="rYequQ2dtKzdK-yXNaAb-129" value="" style="rounded=0;whiteSpace=wrap;html=1;fillColor=#f5f5f5;fontColor=#333333;strokeColor=#666666;" parent="1" vertex="1">
          <mxGeometry x="67.5" y="350" width="712.5" height="435" as="geometry" />
        </mxCell>
        <mxCell id="rYequQ2dtKzdK-yXNaAb-150" value="" style="fontColor=#0066CC;verticalAlign=top;verticalLabelPosition=bottom;labelPosition=center;align=center;html=1;outlineConnect=0;fillColor=#CCCCCC;strokeColor=#6881B3;gradientColor=none;gradientDirection=north;strokeWidth=2;shape=mxgraph.networks.pc;" parent="1" vertex="1">
          <mxGeometry x="68" y="355" width="62" height="45" as="geometry" />
        </mxCell>
        <mxCell id="rYequQ2dtKzdK-yXNaAb-127" value="" style="rounded=0;whiteSpace=wrap;html=1;fillColor=#f5f5f5;fontColor=#333333;strokeColor=#666666;" parent="1" vertex="1">
          <mxGeometry x="67.5" y="20" width="712.5" height="320" as="geometry" />
        </mxCell>
        <mxCell id="rYequQ2dtKzdK-yXNaAb-145" value="" style="ellipse;shape=cloud;whiteSpace=wrap;html=1;fillColor=#FFE6CC;gradientColor=#CCE5FF;" parent="1" vertex="1">
          <mxGeometry x="62.5" y="18" width="70" height="42" as="geometry" />
        </mxCell>
        <mxCell id="rYequQ2dtKzdK-yXNaAb-1" value="NVR" style="rounded=0;whiteSpace=wrap;html=1;fillColor=#fad7ac;strokeColor=#b46504;" parent="1" vertex="1">
          <mxGeometry x="334" y="855" width="90" height="30" as="geometry" />
        </mxCell>
        <mxCell id="rYequQ2dtKzdK-yXNaAb-3" value="" style="shape=image;html=1;verticalAlign=top;verticalLabelPosition=bottom;labelBackgroundColor=#ffffff;imageAspect=0;aspect=fixed;image=https://cdn0.iconfinder.com/data/icons/security-double-color-red-and-black-vol-1/52/camera__capture__device__technology-128.png;fontColor=#E6E6E6;" parent="1" vertex="1">
          <mxGeometry x="475" y="850" width="40" height="40" as="geometry" />
        </mxCell>
        <mxCell id="rYequQ2dtKzdK-yXNaAb-16" value="" style="rounded=0;whiteSpace=wrap;html=1;fillColor=#F9F7ED;strokeColor=#6c8ebf;" parent="1" vertex="1">
          <mxGeometry x="135" y="700" width="495" height="70" as="geometry" />
        </mxCell>
        <mxCell id="rYequQ2dtKzdK-yXNaAb-165" style="edgeStyle=orthogonalEdgeStyle;rounded=0;orthogonalLoop=1;jettySize=auto;html=1;entryX=0.103;entryY=1.002;entryDx=0;entryDy=0;entryPerimeter=0;fontColor=#E6E6E6;" parent="1" source="rYequQ2dtKzdK-yXNaAb-17" target="rYequQ2dtKzdK-yXNaAb-24" edge="1">
          <mxGeometry relative="1" as="geometry" />
        </mxCell>
        <mxCell id="rYequQ2dtKzdK-yXNaAb-17" value="Device Layer" style="text;html=1;strokeColor=#0e8088;fillColor=#b0e3e6;align=center;verticalAlign=middle;whiteSpace=wrap;rounded=0;" parent="1" vertex="1">
          <mxGeometry x="136" y="700" width="100" height="20" as="geometry" />
        </mxCell>
        <mxCell id="rYequQ2dtKzdK-yXNaAb-18" value="海康" style="rounded=0;whiteSpace=wrap;html=1;fillColor=#ffe6cc;strokeColor=#56517E;" parent="1" vertex="1">
          <mxGeometry x="150" y="730" width="100" height="30" as="geometry" />
        </mxCell>
        <mxCell id="rYequQ2dtKzdK-yXNaAb-19" value="大华" style="rounded=0;whiteSpace=wrap;html=1;fillColor=#ffe6cc;strokeColor=#56517E;" parent="1" vertex="1">
          <mxGeometry x="270" y="730" width="100" height="30" as="geometry" />
        </mxCell>
        <mxCell id="rYequQ2dtKzdK-yXNaAb-20" value="RSTP" style="rounded=0;whiteSpace=wrap;html=1;fillColor=#ffe6cc;strokeColor=#56517E;" parent="1" vertex="1">
          <mxGeometry x="390" y="730" width="100" height="30" as="geometry" />
        </mxCell>
        <mxCell id="rYequQ2dtKzdK-yXNaAb-22" value="" style="rounded=0;whiteSpace=wrap;html=1;fillColor=#D5E8D4;gradientColor=#7ea6e0;strokeColor=#6c8ebf;" parent="1" vertex="1">
          <mxGeometry x="639" y="360" width="120" height="310" as="geometry" />
        </mxCell>
        <mxCell id="rYequQ2dtKzdK-yXNaAb-21" value="..." style="text;html=1;strokeColor=none;fillColor=none;align=center;verticalAlign=middle;whiteSpace=wrap;rounded=0;" parent="1" vertex="1">
          <mxGeometry x="505" y="730" width="60" height="30" as="geometry" />
        </mxCell>
        <mxCell id="rYequQ2dtKzdK-yXNaAb-23" value="Message Bus" style="text;html=1;strokeColor=none;fillColor=none;align=center;verticalAlign=middle;whiteSpace=wrap;rounded=0;" parent="1" vertex="1">
          <mxGeometry x="640" y="360" width="60" height="30" as="geometry" />
        </mxCell>
        <mxCell id="rYequQ2dtKzdK-yXNaAb-24" value="" style="rounded=0;whiteSpace=wrap;html=1;fillColor=#F9F7ED;" parent="1" vertex="1">
          <mxGeometry x="135" y="560" width="495" height="110" as="geometry" />
        </mxCell>
        <mxCell id="rYequQ2dtKzdK-yXNaAb-25" value="Ability Layer" style="text;html=1;strokeColor=#0e8088;fillColor=#b0e3e6;align=center;verticalAlign=middle;whiteSpace=wrap;rounded=0;" parent="1" vertex="1">
          <mxGeometry x="136.37" y="560" width="97.5" height="20" as="geometry" />
        </mxCell>
        <mxCell id="rYequQ2dtKzdK-yXNaAb-26" value="Video Code/Decode" style="rounded=1;whiteSpace=wrap;html=1;fillColor=#d0cee2;strokeColor=#56517e;" parent="1" vertex="1">
          <mxGeometry x="140" y="631" width="120" height="30" as="geometry" />
        </mxCell>
        <mxCell id="rYequQ2dtKzdK-yXNaAb-44" style="edgeStyle=orthogonalEdgeStyle;rounded=0;orthogonalLoop=1;jettySize=auto;html=1;entryX=0.394;entryY=0.02;entryDx=0;entryDy=0;entryPerimeter=0;" parent="1" source="rYequQ2dtKzdK-yXNaAb-27" target="rYequQ2dtKzdK-yXNaAb-16" edge="1">
          <mxGeometry relative="1" as="geometry" />
        </mxCell>
        <mxCell id="rYequQ2dtKzdK-yXNaAb-27" value="Command" style="rounded=1;whiteSpace=wrap;html=1;fillColor=#d0cee2;strokeColor=#56517e;" parent="1" vertex="1">
          <mxGeometry x="270" y="631" width="120" height="30" as="geometry" />
        </mxCell>
        <mxCell id="rYequQ2dtKzdK-yXNaAb-28" value="Meta Data" style="rounded=1;whiteSpace=wrap;html=1;fillColor=#d0cee2;strokeColor=#56517e;" parent="1" vertex="1">
          <mxGeometry x="400" y="631" width="120" height="30" as="geometry" />
        </mxCell>
        <mxCell id="rYequQ2dtKzdK-yXNaAb-29" value="" style="verticalLabelPosition=bottom;html=1;verticalAlign=top;strokeWidth=1;align=center;outlineConnect=0;dashed=0;outlineConnect=0;shape=mxgraph.aws3d.image;strokeColor=#ae4132;fillColor=#fad9d5;aspect=fixed;" parent="1" vertex="1">
          <mxGeometry x="660.56" y="600" width="34.88" height="60" as="geometry" />
        </mxCell>
        <mxCell id="rYequQ2dtKzdK-yXNaAb-30" value="" style="verticalLabelPosition=bottom;html=1;verticalAlign=top;strokeWidth=1;align=center;outlineConnect=0;dashed=0;outlineConnect=0;shape=mxgraph.aws3d.image;strokeColor=#ae4132;fillColor=#fad9d5;aspect=fixed;" parent="1" vertex="1">
          <mxGeometry x="660.56" y="555" width="34.88" height="60" as="geometry" />
        </mxCell>
        <mxCell id="rYequQ2dtKzdK-yXNaAb-36" value="" style="rounded=0;whiteSpace=wrap;html=1;dashed=1;fillColor=#f9f7ed;strokeColor=#36393d;" parent="1" vertex="1">
          <mxGeometry x="135" y="460" width="495" height="80" as="geometry" />
        </mxCell>
        <mxCell id="rYequQ2dtKzdK-yXNaAb-38" value="Clean" style="rounded=1;whiteSpace=wrap;html=1;fillColor=#d0cee2;strokeColor=#56517e;" parent="1" vertex="1">
          <mxGeometry x="270" y="591" width="120" height="30" as="geometry" />
        </mxCell>
        <mxCell id="rYequQ2dtKzdK-yXNaAb-40" value="Video → Image" style="rounded=1;whiteSpace=wrap;html=1;fillColor=#d0cee2;strokeColor=#56517e;" parent="1" vertex="1">
          <mxGeometry x="140" y="591" width="120" height="30" as="geometry" />
        </mxCell>
        <mxCell id="rYequQ2dtKzdK-yXNaAb-45" value="Algorithm Layer" style="text;html=1;strokeColor=#0e8088;fillColor=#b0e3e6;align=center;verticalAlign=middle;whiteSpace=wrap;rounded=0;" parent="1" vertex="1">
          <mxGeometry x="135" y="460" width="95" height="20" as="geometry" />
        </mxCell>
        <mxCell id="rYequQ2dtKzdK-yXNaAb-50" value="" style="rounded=0;whiteSpace=wrap;html=1;fillColor=#F9F7ED;strokeColor=#36393d;" parent="1" vertex="1">
          <mxGeometry x="135" y="360" width="495" height="80" as="geometry" />
        </mxCell>
        <mxCell id="rYequQ2dtKzdK-yXNaAb-51" value="App Layer" style="text;html=1;strokeColor=#0e8088;fillColor=#b0e3e6;align=center;verticalAlign=middle;whiteSpace=wrap;rounded=0;" parent="1" vertex="1">
          <mxGeometry x="135.12" y="360" width="100" height="20" as="geometry" />
        </mxCell>
        <mxCell id="rYequQ2dtKzdK-yXNaAb-52" value="..." style="text;html=1;strokeColor=none;fillColor=none;align=center;verticalAlign=middle;whiteSpace=wrap;rounded=0;" parent="1" vertex="1">
          <mxGeometry x="364" y="490" width="60" height="30" as="geometry" />
        </mxCell>
        <mxCell id="rYequQ2dtKzdK-yXNaAb-55" value="" style="verticalLabelPosition=bottom;html=1;verticalAlign=top;strokeWidth=1;align=center;outlineConnect=0;dashed=0;outlineConnect=0;shape=mxgraph.aws3d.image;strokeColor=#ae4132;fillColor=#fad9d5;aspect=fixed;" parent="1" vertex="1">
          <mxGeometry x="660.56" y="520" width="34.88" height="60" as="geometry" />
        </mxCell>
        <mxCell id="rYequQ2dtKzdK-yXNaAb-57" value="Manage Device" style="rounded=1;whiteSpace=wrap;html=1;fillColor=#d0cee2;strokeColor=#56517e;" parent="1" vertex="1">
          <mxGeometry x="200" y="385" width="95" height="30" as="geometry" />
        </mxCell>
        <mxCell id="rYequQ2dtKzdK-yXNaAb-59" value="" style="verticalLabelPosition=bottom;html=1;verticalAlign=top;strokeWidth=1;align=center;outlineConnect=0;dashed=0;outlineConnect=0;shape=mxgraph.aws3d.image;strokeColor=#ae4132;fillColor=#fad9d5;aspect=fixed;" parent="1" vertex="1">
          <mxGeometry x="708" y="460" width="34.88" height="60" as="geometry" />
        </mxCell>
        <mxCell id="rYequQ2dtKzdK-yXNaAb-60" value="" style="verticalLabelPosition=bottom;html=1;verticalAlign=top;strokeWidth=1;align=center;outlineConnect=0;dashed=0;outlineConnect=0;shape=mxgraph.aws3d.image;strokeColor=#ae4132;fillColor=#fad9d5;aspect=fixed;" parent="1" vertex="1">
          <mxGeometry x="708" y="416" width="34.88" height="60" as="geometry" />
        </mxCell>
        <mxCell id="rYequQ2dtKzdK-yXNaAb-61" value="" style="verticalLabelPosition=bottom;html=1;verticalAlign=top;strokeWidth=1;align=center;outlineConnect=0;dashed=0;outlineConnect=0;shape=mxgraph.aws3d.image;strokeColor=#ae4132;fillColor=#fad9d5;aspect=fixed;" parent="1" vertex="1">
          <mxGeometry x="708" y="370" width="34.88" height="60" as="geometry" />
        </mxCell>
        <mxCell id="rYequQ2dtKzdK-yXNaAb-63" value="Topic 1" style="text;html=1;strokeColor=none;fillColor=none;align=center;verticalAlign=middle;whiteSpace=wrap;rounded=0;" parent="1" vertex="1">
          <mxGeometry x="655" y="499.5" width="52" height="30" as="geometry" />
        </mxCell>
        <mxCell id="rYequQ2dtKzdK-yXNaAb-64" value="Topic2" style="text;html=1;strokeColor=none;fillColor=none;align=center;verticalAlign=middle;whiteSpace=wrap;rounded=0;" parent="1" vertex="1">
          <mxGeometry x="707" y="355" width="52" height="30" as="geometry" />
        </mxCell>
        <mxCell id="rYequQ2dtKzdK-yXNaAb-65" value="Alter Warning" style="rounded=1;whiteSpace=wrap;html=1;fillColor=#d0cee2;strokeColor=#56517e;" parent="1" vertex="1">
          <mxGeometry x="305" y="386" width="95" height="30" as="geometry" />
        </mxCell>
        <mxCell id="rYequQ2dtKzdK-yXNaAb-67" value="Monitor" style="rounded=1;whiteSpace=wrap;html=1;fillColor=#d0cee2;strokeColor=#56517e;" parent="1" vertex="1">
          <mxGeometry x="412.5" y="385" width="95" height="30" as="geometry" />
        </mxCell>
        <mxCell id="rYequQ2dtKzdK-yXNaAb-81" value="" style="sketch=0;pointerEvents=1;shadow=0;dashed=0;html=1;strokeColor=#0e8088;fillColor=#b0e3e6;labelPosition=center;verticalLabelPosition=bottom;verticalAlign=top;outlineConnect=0;align=center;shape=mxgraph.office.servers.topology_builder;" parent="1" vertex="1">
          <mxGeometry x="505" y="480.5" width="45" height="49" as="geometry" />
        </mxCell>
        <mxCell id="rYequQ2dtKzdK-yXNaAb-83" value="Stream" style="text;html=1;strokeColor=#0e8088;fillColor=#b0e3e6;align=center;verticalAlign=middle;whiteSpace=wrap;rounded=0;" parent="1" vertex="1">
          <mxGeometry x="560" y="490" width="60" height="30" as="geometry" />
        </mxCell>
        <mxCell id="rYequQ2dtKzdK-yXNaAb-84" value="Hub" style="rounded=1;whiteSpace=wrap;html=1;fillColor=#d0cee2;strokeColor=#56517e;" parent="1" vertex="1">
          <mxGeometry x="525" y="385" width="95" height="30" as="geometry" />
        </mxCell>
        <mxCell id="rYequQ2dtKzdK-yXNaAb-86" value="" style="rounded=0;whiteSpace=wrap;html=1;fillColor=#D5E8D4;gradientColor=#7ea6e0;strokeColor=#6c8ebf;" parent="1" vertex="1">
          <mxGeometry x="132.5" y="250" width="497.5" height="80" as="geometry" />
        </mxCell>
        <mxCell id="rYequQ2dtKzdK-yXNaAb-87" value="MessageBus" style="text;html=1;strokeColor=#0e8088;fillColor=#b0e3e6;align=center;verticalAlign=middle;whiteSpace=wrap;rounded=0;" parent="1" vertex="1">
          <mxGeometry x="132.5" y="250" width="97.5" height="20" as="geometry" />
        </mxCell>
        <mxCell id="rYequQ2dtKzdK-yXNaAb-89" value="" style="verticalLabelPosition=bottom;html=1;verticalAlign=top;strokeWidth=1;align=center;outlineConnect=0;dashed=0;outlineConnect=0;shape=mxgraph.aws3d.image;strokeColor=#b85450;fillColor=#f8cecc;aspect=fixed;gradientColor=#ea6b66;" parent="1" vertex="1">
          <mxGeometry x="251.12" y="260" width="34.88" height="60" as="geometry" />
        </mxCell>
        <mxCell id="rYequQ2dtKzdK-yXNaAb-90" value="" style="verticalLabelPosition=bottom;html=1;verticalAlign=top;strokeWidth=1;align=center;outlineConnect=0;dashed=0;outlineConnect=0;shape=mxgraph.aws3d.image;strokeColor=#b85450;fillColor=#f8cecc;aspect=fixed;gradientColor=#ea6b66;" parent="1" vertex="1">
          <mxGeometry x="302.56" y="260" width="34.88" height="60" as="geometry" />
        </mxCell>
        <mxCell id="rYequQ2dtKzdK-yXNaAb-91" value="" style="verticalLabelPosition=bottom;html=1;verticalAlign=top;strokeWidth=1;align=center;outlineConnect=0;dashed=0;outlineConnect=0;shape=mxgraph.aws3d.image;strokeColor=#b85450;fillColor=#f8cecc;aspect=fixed;gradientColor=#ea6b66;" parent="1" vertex="1">
          <mxGeometry x="349" y="260" width="34.88" height="60" as="geometry" />
        </mxCell>
        <mxCell id="rYequQ2dtKzdK-yXNaAb-94" value="" style="endArrow=classic;startArrow=classic;html=1;rounded=0;exitX=0.5;exitY=0;exitDx=0;exitDy=0;entryX=0.883;entryY=1.042;entryDx=0;entryDy=0;entryPerimeter=0;dashed=1;" parent="1" source="rYequQ2dtKzdK-yXNaAb-84" target="rYequQ2dtKzdK-yXNaAb-86" edge="1">
          <mxGeometry width="50" height="50" relative="1" as="geometry">
            <mxPoint x="390" y="460" as="sourcePoint" />
            <mxPoint x="440" y="410" as="targetPoint" />
          </mxGeometry>
        </mxCell>
        <mxCell id="rYequQ2dtKzdK-yXNaAb-95" value="..." style="text;html=1;strokeColor=none;fillColor=none;align=center;verticalAlign=middle;whiteSpace=wrap;rounded=0;" parent="1" vertex="1">
          <mxGeometry x="390" y="290" width="60" height="30" as="geometry" />
        </mxCell>
        <mxCell id="rYequQ2dtKzdK-yXNaAb-112" value="" style="rounded=0;whiteSpace=wrap;html=1;fillColor=#f9f7ed;strokeColor=#36393d;" parent="1" vertex="1">
          <mxGeometry x="134" y="147" width="495" height="80" as="geometry" />
        </mxCell>
        <mxCell id="rYequQ2dtKzdK-yXNaAb-113" value="Algorithm Layer" style="text;html=1;strokeColor=#0e8088;fillColor=#b0e3e6;align=center;verticalAlign=middle;whiteSpace=wrap;rounded=0;" parent="1" vertex="1">
          <mxGeometry x="134" y="147" width="96" height="23" as="geometry" />
        </mxCell>
        <mxCell id="rYequQ2dtKzdK-yXNaAb-117" value="..." style="text;html=1;strokeColor=none;fillColor=none;align=center;verticalAlign=middle;whiteSpace=wrap;rounded=0;" parent="1" vertex="1">
          <mxGeometry x="414" y="177" width="60" height="30" as="geometry" />
        </mxCell>
        <mxCell id="rYequQ2dtKzdK-yXNaAb-118" value="" style="sketch=0;pointerEvents=1;shadow=0;dashed=0;html=1;strokeColor=none;fillColor=#505050;labelPosition=center;verticalLabelPosition=bottom;verticalAlign=top;outlineConnect=0;align=center;shape=mxgraph.office.servers.topology_builder;" parent="1" vertex="1">
          <mxGeometry x="504" y="167.5" width="45" height="49" as="geometry" />
        </mxCell>
        <mxCell id="rYequQ2dtKzdK-yXNaAb-119" value="Stream" style="text;html=1;strokeColor=none;fillColor=none;align=center;verticalAlign=middle;whiteSpace=wrap;rounded=0;" parent="1" vertex="1">
          <mxGeometry x="559" y="177" width="60" height="30" as="geometry" />
        </mxCell>
        <mxCell id="rYequQ2dtKzdK-yXNaAb-120" value="" style="rounded=0;whiteSpace=wrap;html=1;fillColor=#F9F7ED;strokeColor=#36393d;" parent="1" vertex="1">
          <mxGeometry x="133.25" y="50" width="496" height="70" as="geometry" />
        </mxCell>
        <mxCell id="rYequQ2dtKzdK-yXNaAb-121" value="App Layer" style="text;html=1;strokeColor=#0e8088;fillColor=#b0e3e6;align=center;verticalAlign=middle;whiteSpace=wrap;rounded=0;" parent="1" vertex="1">
          <mxGeometry x="135" y="50" width="65" height="20" as="geometry" />
        </mxCell>
        <mxCell id="rYequQ2dtKzdK-yXNaAb-122" value="Manage Edge" style="rounded=1;whiteSpace=wrap;html=1;fillColor=#fad9d5;strokeColor=#ae4132;" parent="1" vertex="1">
          <mxGeometry x="196" y="80" width="81.12" height="25" as="geometry" />
        </mxCell>
        <mxCell id="rYequQ2dtKzdK-yXNaAb-123" value="Monitor" style="rounded=1;whiteSpace=wrap;html=1;fillColor=#fad9d5;strokeColor=#ae4132;" parent="1" vertex="1">
          <mxGeometry x="289.5" y="80" width="81" height="27.5" as="geometry" />
        </mxCell>
        <mxCell id="rYequQ2dtKzdK-yXNaAb-126" value="..." style="text;html=1;strokeColor=none;fillColor=none;align=center;verticalAlign=middle;whiteSpace=wrap;rounded=0;" parent="1" vertex="1">
          <mxGeometry x="559" y="70" width="60" height="30" as="geometry" />
        </mxCell>
        <mxCell id="rYequQ2dtKzdK-yXNaAb-128" value="Cloud" style="text;html=1;strokeColor=none;fillColor=none;align=center;verticalAlign=middle;whiteSpace=wrap;rounded=0;fontStyle=3" parent="1" vertex="1">
          <mxGeometry x="67.5" y="24" width="62.5" height="26" as="geometry" />
        </mxCell>
        <mxCell id="rYequQ2dtKzdK-yXNaAb-130" value="Edge" style="text;html=1;strokeColor=none;fillColor=none;align=center;verticalAlign=middle;whiteSpace=wrap;rounded=0;fontStyle=3" parent="1" vertex="1">
          <mxGeometry x="72.5" y="355" width="60" height="30" as="geometry" />
        </mxCell>
        <mxCell id="rYequQ2dtKzdK-yXNaAb-131" value="File Data" style="rounded=0;whiteSpace=wrap;html=1;fillColor=#d5e8d4;gradientColor=#97d077;strokeColor=#82b366;" parent="1" vertex="1">
          <mxGeometry x="639" y="250" width="130" height="80" as="geometry" />
        </mxCell>
        <mxCell id="rYequQ2dtKzdK-yXNaAb-132" value="" style="rounded=0;whiteSpace=wrap;html=1;dashed=1;" parent="1" vertex="1">
          <mxGeometry x="643.5" y="700" width="111" height="70" as="geometry" />
        </mxCell>
        <mxCell id="rYequQ2dtKzdK-yXNaAb-133" value="SQL Data" style="rounded=0;whiteSpace=wrap;html=1;fillColor=#ffcc99;strokeColor=#36393d;" parent="1" vertex="1">
          <mxGeometry x="639" y="50" width="130" height="190" as="geometry" />
        </mxCell>
        <mxCell id="rYequQ2dtKzdK-yXNaAb-134" value="File" style="rounded=0;whiteSpace=wrap;html=1;dashed=1;fillColor=#d5e8d4;gradientColor=#97d077;strokeColor=#82b366;" parent="1" vertex="1">
          <mxGeometry x="650" y="710" width="40" height="50" as="geometry" />
        </mxCell>
        <mxCell id="rYequQ2dtKzdK-yXNaAb-135" value="SQL" style="rounded=0;whiteSpace=wrap;html=1;dashed=1;fillColor=#ffcc99;strokeColor=#36393d;" parent="1" vertex="1">
          <mxGeometry x="702.88" y="710" width="40" height="50" as="geometry" />
        </mxCell>
        <mxCell id="rYequQ2dtKzdK-yXNaAb-141" value="Statics" style="rounded=1;whiteSpace=wrap;html=1;fillColor=#fad9d5;strokeColor=#ae4132;" parent="1" vertex="1">
          <mxGeometry x="386" y="80" width="81" height="27.5" as="geometry" />
        </mxCell>
        <mxCell id="rYequQ2dtKzdK-yXNaAb-142" value="Alert Warning" style="rounded=1;whiteSpace=wrap;html=1;fillColor=#fad9d5;strokeColor=#ae4132;" parent="1" vertex="1">
          <mxGeometry x="479" y="80" width="81" height="27.5" as="geometry" />
        </mxCell>
        <mxCell id="soOXGWd1KTmuaT-1O_KT-3" style="edgeStyle=orthogonalEdgeStyle;rounded=0;orthogonalLoop=1;jettySize=auto;html=1;entryX=-0.015;entryY=0.792;entryDx=0;entryDy=0;entryPerimeter=0;" parent="1" source="soOXGWd1KTmuaT-1O_KT-1" target="rYequQ2dtKzdK-yXNaAb-22" edge="1">
          <mxGeometry relative="1" as="geometry" />
        </mxCell>
        <mxCell id="soOXGWd1KTmuaT-1O_KT-1" value="Push" style="rounded=1;whiteSpace=wrap;html=1;fillColor=#d0cee2;strokeColor=#56517e;" parent="1" vertex="1">
          <mxGeometry x="399" y="591" width="120" height="30" as="geometry" />
        </mxCell>
        <mxCell id="BSR1wjk1UJU8XMFhwtl2-1" value="" style="shape=image;html=1;verticalAlign=top;verticalLabelPosition=bottom;labelBackgroundColor=#ffffff;imageAspect=0;aspect=fixed;image=https://cdn1.iconfinder.com/data/icons/unicons-line-vol-1/24/brain-128.png" vertex="1" parent="1">
          <mxGeometry x="256.38" y="173" width="38" height="38" as="geometry" />
        </mxCell>
        <mxCell id="BSR1wjk1UJU8XMFhwtl2-2" value="" style="shape=image;html=1;verticalAlign=top;verticalLabelPosition=bottom;labelBackgroundColor=#ffffff;imageAspect=0;aspect=fixed;image=https://cdn1.iconfinder.com/data/icons/unicons-line-vol-1/24/brain-128.png" vertex="1" parent="1">
          <mxGeometry x="311" y="173" width="38" height="38" as="geometry" />
        </mxCell>
        <mxCell id="BSR1wjk1UJU8XMFhwtl2-3" value="" style="shape=image;html=1;verticalAlign=top;verticalLabelPosition=bottom;labelBackgroundColor=#ffffff;imageAspect=0;aspect=fixed;image=https://cdn1.iconfinder.com/data/icons/unicons-line-vol-1/24/brain-128.png" vertex="1" parent="1">
          <mxGeometry x="377" y="173" width="38" height="38" as="geometry" />
        </mxCell>
        <mxCell id="BSR1wjk1UJU8XMFhwtl2-4" value="" style="shape=image;html=1;verticalAlign=top;verticalLabelPosition=bottom;labelBackgroundColor=#ffffff;imageAspect=0;aspect=fixed;image=https://cdn1.iconfinder.com/data/icons/unicons-line-vol-1/24/brain-128.png" vertex="1" parent="1">
          <mxGeometry x="236" y="486" width="38" height="38" as="geometry" />
        </mxCell>
        <mxCell id="BSR1wjk1UJU8XMFhwtl2-5" value="" style="shape=image;html=1;verticalAlign=top;verticalLabelPosition=bottom;labelBackgroundColor=#ffffff;imageAspect=0;aspect=fixed;image=https://cdn1.iconfinder.com/data/icons/unicons-line-vol-1/24/brain-128.png" vertex="1" parent="1">
          <mxGeometry x="277.12" y="486" width="38" height="38" as="geometry" />
        </mxCell>
        <mxCell id="BSR1wjk1UJU8XMFhwtl2-6" value="" style="shape=image;html=1;verticalAlign=top;verticalLabelPosition=bottom;labelBackgroundColor=#ffffff;imageAspect=0;aspect=fixed;image=https://cdn1.iconfinder.com/data/icons/unicons-line-vol-1/24/brain-128.png" vertex="1" parent="1">
          <mxGeometry x="330" y="486" width="38" height="38" as="geometry" />
        </mxCell>
        <mxCell id="BSR1wjk1UJU8XMFhwtl2-8" value="" style="verticalLabelPosition=bottom;sketch=0;html=1;fillColor=#A153A0;strokeColor=#ffffff;verticalAlign=top;align=center;points=[[0,0.5,0],[0.125,0.25,0],[0.25,0,0],[0.5,0,0],[0.75,0,0],[0.875,0.25,0],[1,0.5,0],[0.875,0.75,0],[0.75,1,0],[0.5,1,0],[0.125,0.75,0]];pointerEvents=1;shape=mxgraph.cisco_safe.compositeIcon;bgIcon=mxgraph.cisco_safe.design.blank_device;resIcon=mxgraph.cisco_safe.design.distribution_switch;" vertex="1" parent="1">
          <mxGeometry x="424" y="482.5" width="50" height="45" as="geometry" />
        </mxCell>
        <mxCell id="BSR1wjk1UJU8XMFhwtl2-11" value="" style="endArrow=classic;startArrow=classic;html=1;rounded=0;exitX=0.5;exitY=0;exitDx=0;exitDy=0;entryX=0.642;entryY=0.988;entryDx=0;entryDy=0;dashed=1;exitPerimeter=0;entryPerimeter=0;" edge="1" parent="1" source="BSR1wjk1UJU8XMFhwtl2-8" target="rYequQ2dtKzdK-yXNaAb-86">
          <mxGeometry width="50" height="50" relative="1" as="geometry">
            <mxPoint x="582.5" y="395" as="sourcePoint" />
            <mxPoint x="581.7925" y="343.3599999999999" as="targetPoint" />
            <Array as="points" />
          </mxGeometry>
        </mxCell>
      </root>
    </mxGraphModel>
  </diagram>
</mxfile>
